# xmcd CD database file
#
# Track frame offsets:
#	187
#	17239
#	35699
#	55564
#	76429
#	95039
#	116207
#	143302
#	158022
#	173437
#	195597
#
# Disc length: 2792 seconds
#
# Revision: 6
# Processed by: cddbd v1.5PL3 Copyright (c) Steve Scherf et al.
# Submitted via: CDex 1.50beta9
#
DISCID=830ae60b
DTITLE=木住野佳子 - You Are So Beautiful
DYEAR=1999
DGENRE=Jazz
TTITLE0=Israel
TTITLE1=Tenderly
TTITLE2=Autumn Leaves
TTITLE3=The Days of Wine And Roses
TTITLE4=Waltz for Debby
TTITLE5=O Grande Amor
TTITLE6=Here, There And Everywhere
TTITLE7=April in Paris
TTITLE8=Here's That Rainy Day
TTITLE9=Easy To Love
TTITLE10=You Are So Beautiful
EXTD=YEAR: 1999
EXTT0=
EXTT1=
EXTT2=
EXTT3=
EXTT4=
EXTT5=
EXTT6=
EXTT7=
EXTT8=
EXTT9=
EXTT10=
PLAYORDER=
